<svg width="290" height="41" viewBox="0 0 290 41" fill="none" xmlns="http://www.w3.org/2000/svg">
<path d="M195.6 0H138.3H0V40.2H138.3H195.6H290V0H195.6ZM283.7 32.7H139.1H5.1V27.7H139.1H283.7V32.7ZM29 20.1C29 18.7 30.1 17.6 31.5 17.6C32.9 17.6 34 18.7 34 20.1C34 21.5 32.9 22.6 31.5 22.6C30.1 22.6 29 21.5 29 20.1ZM39 20.1C39 18.7 40.1 17.6 41.5 17.6C42.9 17.6 44 18.7 44 20.1C44 21.5 42.9 22.6 41.5 22.6C40.1 22.6 39 21.5 39 20.1ZM54.1 22.6V17.6H86.8V22.6H54.1ZM192 20.1C192 18.7 193.1 17.6 194.5 17.6C195.9 17.6 197 18.7 197 20.1C197 21.5 195.9 22.6 194.5 22.6C193.1 22.6 192 21.5 192 20.1ZM202 20.1C202 18.7 203.1 17.6 204.5 17.6C205.9 17.6 207 18.7 207 20.1C207 21.5 205.9 22.6 204.5 22.6C203.1 22.6 202 21.5 202 20.1ZM217.1 22.6V17.6H249.8V22.6H217.1ZM283.7 12.5H139.1H5.1V7.5H139.1H283.7V12.5Z" fill="#E2E2E2"/>
</svg>
