<svg width="290" height="30" viewBox="0 0 290 30" fill="none" xmlns="http://www.w3.org/2000/svg">
<path d="M195.6 0H138.3H0V29.8H138.3H195.6H290V0H195.6ZM11 15.3C11 12.1 13.6 9.5 16.8 9.5C20 9.5 22.6 12.1 22.6 15.3C22.6 18.5 20 21.1 16.8 21.1C13.6 21.1 11 18.5 11 15.3ZM22.6 22.7H10.8C9.9 22.7 9.2 22 9.2 21.1V9.3C9.2 8.4 9.9 7.7 10.8 7.7H22.6C23.5 7.7 24.2 8.4 24.2 9.3V21.1C24.2 22 23.5 22.7 22.6 22.7ZM61.5 22.1H48V13.1H61.5V22.1ZM48 13.1L54.7 8.6L61.4 13.1H48ZM90.7 22.1H77.2V13.1H90.7V22.1ZM77.2 13.1L84 8.6L90.7 13.1H77.2ZM120 22.1H106.5V13.1H120V22.1ZM106.5 13.1L113.2 8.6L119.9 13.1H106.5ZM149.2 22.1H135.7V13.1H149.2V22.1ZM135.7 13.1L142.4 8.6L149.1 13.1H135.7ZM178.5 22.1H165V13.1H178.5V22.1ZM165 13.1L171.7 8.6L178.4 13.1H165ZM207.7 22.1H194.2V13.1H207.7V22.1ZM194.2 13.1L200.9 8.6L207.6 13.1H194.2ZM237 22.1H223.5V13.1H237V22.1ZM223.5 13.1L230.2 8.6L236.9 13.1H223.5ZM266.2 22.1H252.7V13.1H266.2V22.1ZM252.7 13.1L259.4 8.6L266.1 13.1" fill="#E2E2E2"/>
</svg>
